<?xml version="1.0" encoding="UTF-8" standalone="no"?>
<!-- Uploaded to: SVG Repo, www.svgrepo.com, Generator: SVG Repo Mixer Tools -->

<svg
   fill="#355e3b"
   height="957.21277"
   width="981.07544"
   version="1.1"
   id="Capa_1"
   viewBox="0 0 580.11482 566.0047"
   xml:space="preserve"
   sodipodi:docname="favicon.svg"
   inkscape:version="1.2.2 (732a01da63, 2022-12-09)"
   inkscape:export-filename="favicon.svg"
   inkscape:export-xdpi="96"
   inkscape:export-ydpi="96"
   xmlns:inkscape="http://www.inkscape.org/namespaces/inkscape"
   xmlns:sodipodi="http://sodipodi.sourceforge.net/DTD/sodipodi-0.dtd"
   xmlns="http://www.w3.org/2000/svg"
   xmlns:svg="http://www.w3.org/2000/svg"><defs
   id="defs21" /><sodipodi:namedview
   id="namedview19"
   pagecolor="#ffffff"
   bordercolor="#000000"
   borderopacity="0.25"
   inkscape:showpageshadow="2"
   inkscape:pageopacity="0.0"
   inkscape:pagecheckerboard="0"
   inkscape:deskcolor="#d1d1d1"
   showgrid="false"
   inkscape:zoom="0.71241008"
   inkscape:cx="463.9182"
   inkscape:cy="423.91315"
   inkscape:window-width="1920"
   inkscape:window-height="1009"
   inkscape:window-x="-8"
   inkscape:window-y="-8"
   inkscape:window-maximized="1"
   inkscape:current-layer="Capa_1" />

<ellipse
   style="fill:#ffffff;stroke:#355e3b;stroke-width:3.30759;stroke-opacity:1"
   id="path432"
   cx="285.37085"
   cy="273.32709"
   rx="279.3208"
   ry="268.93707"
   inkscape:export-filename="favicon.svg"
   inkscape:export-xdpi="96"
   inkscape:export-ydpi="96" /><path
   d="m 270.71037,243.73342 c -10.11034,-22.79874 -23.53983,-43.64352 -40.04511,-62.1766 18.07558,-25.23751 15.86566,-60.77898 -6.64809,-83.486436 -4.05906,-4.094202 -10.64111,-4.094202 -14.70139,0 -14.96066,15.090196 -20.94957,35.848626 -17.9863,55.485746 -25.9442,-7.78503 -55.22223,-1.36802 -75.66916,19.25471 -4.06028,4.09421 -4.06028,10.73325 0,14.82869 14.84325,14.97301 34.34237,22.45828 53.84027,22.45828 15.94026,0 31.87686,-5.00951 45.27333,-15.01619 6.30688,7.03379 12.10746,14.41791 17.40049,22.10055 -19.80975,-0.91407 -39.44462,9.09754 -49.95854,27.61705 -2.8532,5.02555 -1.12759,11.43145 3.85482,14.30936 8.37249,4.8368 17.64875,7.30517 27.04365,7.30517 4.80385,0 9.64072,-0.64639 14.40054,-1.9515 9.0598,-2.48317 17.14367,-7.17072 23.69393,-13.59512 12.76541,28.18572 19.50034,59.05075 19.50034,90.96431 v 0.94244 h -77.29083 c -5.74064,0 -10.39529,4.69495 -10.39529,10.4853 v 44.02223 c 0,5.79036 4.65465,10.4853 10.39529,10.4853 h 9.49396 l 9.67618,103.91304 c 0.50142,5.38698 4.98485,9.50462 10.35004,9.50462 h 110.217 c 5.36519,0 9.84862,-4.11764 10.35004,-9.50462 l 9.67618,-103.91304 h 9.49396 c 5.74065,0 10.39529,-4.69494 10.39529,-10.4853 v -44.02223 c 0,-5.79035 -4.65464,-10.4853 -10.39529,-10.4853 h -71.17473 v -39.32111 c 0.0135,-30.12983 6.0305,-59.32337 17.45553,-86.20769 10.65946,7.10287 22.97727,10.65554 35.29508,10.65554 16.40254,0 32.80509,-6.29735 45.29289,-18.89205 1.94943,-1.9663 3.04399,-4.63327 3.04399,-7.41496 0,-2.78169 -1.09579,-5.44865 -3.04399,-7.41372 -15.69322,-15.82911 -37.5698,-21.70581 -57.85897,-17.64245 5.89964,-8.32656 12.40464,-16.29292 19.51013,-23.82877 39.61462,-2.8631 70.98394,-36.26434 70.98394,-76.938672 0,-5.790354 -4.65464,-10.485302 -10.39529,-10.485302 -41.06262,0 -74.66021,32.806658 -76.41395,73.796784 -18.26636,19.5631 -32.98977,41.83388 -43.8718,66.37072 -16.20991,31.08199 -8.1177,17.97392 -20.78814,38.28122 z m -48.64629,0.4922 c -4.34401,1.19039 -8.78831,1.49508 -13.11764,0.93997 7.06513,-5.48196 16.06134,-7.94909 24.90467,-6.82531 -3.45979,2.6904 -7.44425,4.69495 -11.78703,5.88534 z m -5.39822,-121.44693 c 7.0688,13.02027 7.0688,28.93203 0,41.9523 -7.06757,-13.02027 -7.06757,-28.93203 0,-41.9523 z m -77.21622,57.44588 c 18.21499,-11.88047 41.89058,-11.87923 60.10435,0 -18.21377,11.88046 -41.88936,11.8817 -60.10435,0 z m 225.59861,21.36781 c -12.90973,7.13 -28.68489,7.12877 -41.59217,0 12.90606,-7.13001 28.68122,-7.13124 41.59217,0 z M 400.17333,87.481463 c -4.55925,21.603417 -21.46077,38.651287 -42.87874,43.248777 4.55925,-21.60218 21.462,-38.650048 42.87874,-43.248777 z M 323.69089,500.21377 h -91.28778 l -8.60852,-92.44706 h 108.5036 z m 28.5895,-113.41766 H 203.81484 v -23.05163 h 148.46555 z"
   id="path571"
   sodipodi:nodetypes="cccccccsccscsccscssssccssccsssscccscssccssccccccccccccccccccccccccccccc"
   style="stroke-width:1.22826" /></svg>
